<svg width="38" height="38" viewBox="0 0 38 38" fill="none" xmlns="http://www.w3.org/2000/svg">
<g id="Group 100">
<circle id="Ellipse 14" cx="19" cy="19" r="19" fill="white"/>
<path id="Vector" d="M10.587 11C10.2628 11 10 11.2628 10 11.587C10 11.9111 10.2628 12.1739 10.587 12.1739H12.9287C13.9002 14.58 14.857 16.9904 15.8207 19.4009L14.9342 21.5347C14.8599 21.7126 14.8808 21.9271 14.988 22.0874C15.0952 22.2476 15.2855 22.3487 15.4783 22.3479H25.261C25.5711 22.3522 25.8563 22.0711 25.8563 21.761C25.8563 21.4508 25.5711 21.1696 25.261 21.174H16.3587L16.8662 19.9634L26.2882 19.2114C26.5348 19.192 26.758 18.9999 26.814 18.7589L27.9879 13.6719C28.0647 13.3293 27.7643 12.9554 27.4132 12.9565H14.5061L13.8703 11.3669C13.7832 11.1517 13.5582 11 13.3261 11H10.587ZM14.9769 14.1305H26.6734L25.7623 18.0802L16.8418 18.7895L14.9769 14.1305ZM17.4348 22.7392C16.3612 22.7392 15.4783 23.6221 15.4783 24.6958C15.4783 25.7694 16.3612 26.6523 17.4348 26.6523C18.5085 26.6523 19.3914 25.7694 19.3914 24.6958C19.3914 23.6221 18.5085 22.7392 17.4348 22.7392ZM23.3045 22.7392C22.2308 22.7392 21.3479 23.6221 21.3479 24.6958C21.3479 25.7694 22.2308 26.6523 23.3045 26.6523C24.3781 26.6523 25.261 25.7694 25.261 24.6958C25.261 23.6221 24.3781 22.7392 23.3045 22.7392ZM17.4348 23.9131C17.874 23.9131 18.2175 24.2566 18.2175 24.6958C18.2175 25.1349 17.874 25.4784 17.4348 25.4784C16.9957 25.4784 16.6522 25.1349 16.6522 24.6958C16.6522 24.2566 16.9957 23.9131 17.4348 23.9131ZM23.3045 23.9131C23.7436 23.9131 24.0871 24.2566 24.0871 24.6958C24.0871 25.1349 23.7436 25.4784 23.3045 25.4784C22.8653 25.4784 22.5218 25.1349 22.5218 24.6958C22.5218 24.2566 22.8653 23.9131 23.3045 23.9131Z" fill="#006FF9"/>
</g>
</svg>
